<?xml version="1.0" encoding="UTF-8"?>
<svg xmlns="http://www.w3.org/2000/svg" xmlns:xlink="http://www.w3.org/1999/xlink" width="150px" height="150px" viewBox="0 0 540 540" version="1.1">
<g id="surface1">
<path style=" stroke:none;fill-rule:nonzero;fill:rgb(100%,100%,100%);fill-opacity:1;" d="M 299.78125 219.933594 L 358.730469 254.148438 L 477.449219 184.894531 L 272.976562 64.113281 L 65.226562 184.894531 L 360.789062 355.144531 L 272.976562 405.84375 L 185.59375 355.964844 L 242.484375 320.515625 L 183.535156 286.714844 L 62.339844 355.144531 L 272.273438 475.511719 L 477.390625 356.164062 L 183.945312 184.484375 L 272.164062 132.539062 L 360.378906 183.660156 "/>
<path style=" stroke:none;fill-rule:nonzero;fill:rgb(100%,100%,100%);fill-opacity:1;" d="M 61.699219 112.550781 L 61.796875 177.40625 L 103.566406 152.945312 Z M 61.699219 112.550781 "/>
<path style=" stroke:none;fill-rule:nonzero;fill:rgb(100%,100%,100%);fill-opacity:1;" d="M 479.925781 112.550781 L 479.925781 176.855469 L 438.699219 152.945312 Z M 479.925781 112.550781 "/>
<path style=" stroke:none;fill-rule:nonzero;fill:rgb(100%,100%,100%);fill-opacity:1;" d="M 61.558594 430.375 L 61.613281 366.066406 L 102.839844 389.976562 Z M 61.558594 430.375 "/>
<path style=" stroke:none;fill-rule:nonzero;fill:rgb(100%,100%,100%);fill-opacity:1;" d="M 479.925781 430.375 L 479.628906 366.066406 L 438.40625 389.976562 Z M 479.925781 430.375 "/>
</g>
</svg>
