<?xml version="1.0" encoding="UTF-8"?>
<svg xmlns="http://www.w3.org/2000/svg" xmlns:xlink="http://www.w3.org/1999/xlink" width="100px" height="56px" viewBox="0 0 100 56" version="1.1">
<g id="surface1">
<path style=" stroke:none;fill-rule:nonzero;fill:rgb(0%,0%,0%);fill-opacity:1;" d="M 16.578125 25.273438 L 19.699219 27.097656 L 25.980469 23.410156 L 15.160156 16.980469 L 4.164062 23.410156 L 19.808594 32.472656 L 15.160156 35.171875 L 10.535156 32.515625 L 13.546875 30.628906 L 10.425781 28.828125 L 4.011719 32.472656 L 15.121094 38.878906 L 25.980469 32.527344 L 10.445312 23.386719 L 15.117188 20.621094 L 19.785156 23.34375 "/>
<path style=" stroke:none;fill-rule:nonzero;fill:rgb(0%,0%,0%);fill-opacity:1;" d="M 3.976562 19.558594 L 3.980469 23.011719 L 6.191406 21.710938 Z M 3.976562 19.558594 "/>
<path style=" stroke:none;fill-rule:nonzero;fill:rgb(0%,0%,0%);fill-opacity:1;" d="M 26.113281 19.558594 L 26.113281 22.980469 L 23.929688 21.710938 Z M 26.113281 19.558594 "/>
<path style=" stroke:none;fill-rule:nonzero;fill:rgb(0%,0%,0%);fill-opacity:1;" d="M 3.96875 36.476562 L 3.972656 33.054688 L 6.152344 34.324219 Z M 3.96875 36.476562 "/>
<path style=" stroke:none;fill-rule:nonzero;fill:rgb(0%,0%,0%);fill-opacity:1;" d="M 26.113281 36.476562 L 26.097656 33.054688 L 23.914062 34.324219 Z M 26.113281 36.476562 "/>
<path style=" stroke:none;fill-rule:nonzero;fill:rgb(0%,0%,0%);fill-opacity:1;" d="M 37.558594 21.683594 C 39.960938 21.683594 41.507812 23.03125 41.648438 25.214844 L 39.925781 25.214844 C 39.839844 23.957031 38.949219 23.222656 37.542969 23.222656 C 35.960938 23.222656 34.933594 24.027344 34.933594 25.269531 C 34.933594 26.28125 35.507812 26.894531 36.691406 27.175781 L 38.757812 27.664062 C 40.8125 28.136719 41.851562 29.257812 41.851562 31.039062 C 41.851562 33.3125 40.097656 34.765625 37.417969 34.765625 C 34.863281 34.765625 33.15625 33.417969 33.054688 31.25 L 34.792969 31.25 C 34.828125 32.457031 35.835938 33.226562 37.417969 33.226562 C 39.089844 33.226562 40.152344 32.441406 40.152344 31.179688 C 40.152344 30.183594 39.613281 29.554688 38.414062 29.273438 L 36.34375 28.800781 C 34.289062 28.328125 33.230469 27.140625 33.230469 25.320312 C 33.226562 23.152344 34.96875 21.683594 37.558594 21.683594 Z M 37.558594 21.683594 "/>
<path style=" stroke:none;fill-rule:nonzero;fill:rgb(0%,0%,0%);fill-opacity:1;" d="M 43.714844 34.539062 L 43.714844 21.683594 L 45.351562 21.683594 L 45.351562 27.316406 C 45.890625 26.386719 46.917969 25.757812 48.238281 25.757812 C 50.414062 25.757812 51.457031 27.140625 51.457031 29.328125 L 51.457031 34.558594 L 49.820312 34.558594 L 49.820312 29.695312 C 49.820312 27.960938 49.003906 27.261719 47.785156 27.261719 C 46.203125 27.261719 45.351562 28.417969 45.351562 29.886719 L 45.351562 34.539062 Z M 43.714844 34.539062 "/>
<path style=" stroke:none;fill-rule:nonzero;fill:rgb(0%,0%,0%);fill-opacity:1;" d="M 53.300781 32.175781 C 53.300781 30.601562 54.464844 29.625 56.464844 29.464844 L 59.144531 29.257812 L 59.144531 29.015625 C 59.144531 27.578125 58.292969 27.074219 57.144531 27.074219 C 55.769531 27.074219 54.988281 27.683594 54.988281 28.714844 L 53.5625 28.714844 C 53.5625 26.933594 55.023438 25.761719 57.214844 25.761719 C 59.320312 25.761719 60.746094 26.878906 60.746094 29.191406 L 60.746094 34.558594 L 59.351562 34.558594 L 59.179688 33.175781 C 58.742188 34.152344 57.578125 34.765625 56.203125 34.765625 C 54.378906 34.765625 53.300781 33.734375 53.300781 32.175781 Z M 59.164062 30.867188 L 59.164062 30.410156 L 56.988281 30.585938 C 55.542969 30.726562 54.953125 31.285156 54.953125 32.125 C 54.953125 33.035156 55.613281 33.488281 56.675781 33.488281 C 58.222656 33.488281 59.164062 32.476562 59.164062 30.867188 Z M 59.164062 30.867188 "/>
<path style=" stroke:none;fill-rule:nonzero;fill:rgb(0%,0%,0%);fill-opacity:1;" d="M 67.875 27.4375 L 67.144531 27.4375 C 65.597656 27.4375 64.640625 28.382812 64.640625 30.027344 L 64.640625 34.558594 L 63.007812 34.558594 L 63.007812 26.019531 L 64.535156 26.019531 L 64.640625 27.316406 C 64.988281 26.425781 65.839844 25.828125 67.003906 25.828125 C 67.296875 25.832031 67.589844 25.867188 67.875 25.933594 Z M 67.875 27.4375 "/>
<path style=" stroke:none;fill-rule:nonzero;fill:rgb(0%,0%,0%);fill-opacity:1;" d="M 68.539062 30.304688 C 68.539062 27.683594 70.050781 25.757812 72.574219 25.757812 C 73.878906 25.757812 74.972656 26.335938 75.546875 27.386719 L 75.546875 21.679688 L 77.164062 21.679688 L 77.164062 34.558594 L 75.703125 34.558594 L 75.566406 33 C 75.007812 34.171875 73.859375 34.769531 72.503906 34.769531 C 70.035156 34.765625 68.539062 32.914062 68.539062 30.304688 Z M 75.53125 30.253906 C 75.53125 28.503906 74.503906 27.246094 72.832031 27.246094 C 71.164062 27.246094 70.191406 28.507812 70.191406 30.253906 C 70.191406 32.019531 71.164062 33.28125 72.832031 33.28125 C 74.503906 33.28125 75.53125 32.039062 75.53125 30.253906 Z M 75.53125 30.253906 "/>
<path style=" stroke:none;fill-rule:nonzero;fill:rgb(0%,0%,0%);fill-opacity:1;" d="M 78.972656 30.289062 C 78.972656 27.613281 80.660156 25.757812 83.132812 25.757812 C 85.546875 25.757812 87.132812 27.4375 87.132812 29.972656 L 87.132812 30.585938 L 80.554688 30.601562 C 80.679688 32.40625 81.617188 33.402344 83.238281 33.402344 C 84.507812 33.402344 85.34375 32.878906 85.621094 31.898438 L 87.152344 31.898438 C 86.734375 33.738281 85.308594 34.769531 83.203125 34.769531 C 80.695312 34.765625 78.972656 32.945312 78.972656 30.289062 Z M 80.589844 29.503906 L 85.496094 29.503906 C 85.496094 28.085938 84.574219 27.140625 83.132812 27.140625 C 81.703125 27.140625 80.800781 27.996094 80.589844 29.503906 Z M 80.589844 29.503906 "/>
<path style=" stroke:none;fill-rule:nonzero;fill:rgb(0%,0%,0%);fill-opacity:1;" d="M 87.617188 34.558594 L 90.59375 30.324219 L 87.636719 26.003906 L 89.53125 26.003906 L 91.6875 29.1875 L 93.792969 26.003906 L 95.65625 26.003906 L 92.699219 30.324219 L 95.601562 34.558594 L 93.707031 34.558594 L 91.585938 31.425781 L 89.496094 34.558594 Z M 87.617188 34.558594 "/>
</g>
</svg>
