<svg xmlns="http://www.w3.org/2000/svg" viewBox="0 0 1920 1080"><g id="Layer_2_copy_2" data-name="Layer 2 copy 2"><polyline points="311.81 487.44 372.33 522.56 494.2 451.47 284.3 327.48 71.03 451.47 374.44 626.24 284.3 678.29 194.6 627.09 253 590.69 192.48 555.99 68.07 626.24 283.58 749.81 494.14 627.29 192.9 451.05 283.46 397.73 374.02 450.2"/><polygon points="67.41 377.2 67.51 443.78 110.39 418.68 67.41 377.2"/><polygon points="496.74 377.2 496.74 443.22 454.42 418.68 496.74 377.2"/><polygon points="67.27 703.47 67.33 637.46 109.64 662 67.27 703.47"/><polygon points="496.74 703.47 496.44 637.46 454.12 662 496.74 703.47"/><path d="M718.73,418.16c46.55,0,76.57,26,79.27,68.14H764.61c-1.69-24.28-18.9-38.45-46.22-38.45-30.7,0-50.6,15.52-50.6,39.47,0,19.56,11.13,31.37,34.07,36.77L742,533.53c39.81,9.11,60,30.7,60,65.11,0,43.85-34.07,71.86-86,71.86-49.59,0-82.65-26-84.67-67.81h33.73c.68,23.27,20.24,38.12,50.94,38.12,32.38,0,53-15.18,53-39.47,0-19.23-10.46-31.37-33.73-36.77l-40.14-9.11c-39.81-9.11-60.39-32.05-60.39-67.13C634.73,446.5,668.46,418.16,718.73,418.16Z"/><path d="M838.14,666.11V418.16h31.71V526.79c10.46-17.88,30.36-30,56-30,42.17,0,62.41,26.65,62.41,68.82V666.45H956.55V572.67c0-33.4-15.86-46.9-39.47-46.9-30.7,0-47.23,22.27-47.23,50.61v89.73Z"/><path d="M1024,620.57c0-30.36,22.6-49.25,61.4-52.29l51.95-4v-4.72c0-27.66-16.53-37.45-38.8-37.45-26.65,0-41.82,11.81-41.82,31.71h-27.67c0-34.4,28.34-57,70.84-57,40.82,0,68.48,21.59,68.48,66.12V666.45h-27L1138,639.8c-8.43,18.89-31,30.7-57.68,30.7C1044.93,670.5,1024,650.59,1024,620.57Zm113.69-25.3V586.5l-42.17,3.37c-28,2.7-39.47,13.49-39.47,29.69,0,17.54,12.82,26.31,33.39,26.31C1119.48,645.87,1137.7,626.3,1137.7,595.27Z"/><path d="M1306.7,529.15h-14.17c-30,0-48.57,18.21-48.57,49.92v87.38h-31.72V501.82h29.69l2,25c6.74-17.21,23.27-28.68,45.87-28.68a76.5,76.5,0,0,1,16.87,2Z"/><path d="M1319.52,584.47c0-50.6,29.35-87.71,78.26-87.71,25.3,0,46.56,11.13,57.69,31.38v-110h31.37V666.45H1458.5l-2.69-30c-10.8,22.6-33.06,34.08-59.38,34.08C1348.53,670.5,1319.52,634.74,1319.52,584.47Zm135.61-1c0-33.73-19.9-58-52.29-58s-51.28,24.29-51.28,58c0,34.07,18.9,58.36,51.28,58.36S1455.13,617.87,1455.13,583.46Z"/><path d="M1521.91,584.14c0-51.62,32.73-87.38,80.63-87.38,46.89,0,77.59,32.39,77.59,81.3v11.81l-127.52.34c2.36,34.74,20.58,54,52,54,24.63,0,40.82-10.12,46.22-29h29.68c-8.09,35.42-35.75,55.33-76.57,55.33C1555.31,670.5,1521.91,635.41,1521.91,584.14ZM1553.29,569h95.13c0-27.32-17.88-45.54-45.88-45.54C1574.88,523.41,1557.34,539.94,1553.29,569Z"/><path d="M1689.57,666.45l57.69-81.64-57.35-83.33h36.77l41.83,61.4,40.82-61.4h36.09l-57.35,83.33,56.34,81.64h-36.77l-41.16-60.39L1726,666.45Z"/></g></svg>