<?xml version="1.0" encoding="UTF-8"?>
<svg xmlns="http://www.w3.org/2000/svg" xmlns:xlink="http://www.w3.org/1999/xlink" width="80px" height="45px" viewBox="0 0 80 45" version="1.1">
<g id="surface1">
<path style=" stroke:none;fill-rule:nonzero;fill:rgb(100%,100%,100%);fill-opacity:1;" d="M 12.992188 20.308594 L 15.515625 21.773438 L 20.589844 18.8125 L 11.847656 13.644531 L 2.960938 18.8125 L 15.601562 26.09375 L 11.847656 28.261719 L 8.109375 26.128906 L 10.542969 24.613281 L 8.019531 23.167969 L 2.835938 26.09375 L 11.816406 31.242188 L 20.589844 26.136719 L 8.039062 18.792969 L 11.8125 16.570312 L 15.585938 18.757812 "/>
<path style=" stroke:none;fill-rule:nonzero;fill:rgb(100%,100%,100%);fill-opacity:1;" d="M 2.808594 15.714844 L 2.8125 18.492188 L 4.597656 17.445312 Z M 2.808594 15.714844 "/>
<path style=" stroke:none;fill-rule:nonzero;fill:rgb(100%,100%,100%);fill-opacity:1;" d="M 20.699219 15.714844 L 20.699219 18.46875 L 18.933594 17.445312 Z M 20.699219 15.714844 "/>
<path style=" stroke:none;fill-rule:nonzero;fill:rgb(100%,100%,100%);fill-opacity:1;" d="M 2.804688 29.3125 L 2.804688 26.5625 L 4.566406 27.582031 Z M 2.804688 29.3125 "/>
<path style=" stroke:none;fill-rule:nonzero;fill:rgb(100%,100%,100%);fill-opacity:1;" d="M 20.699219 29.3125 L 20.683594 26.5625 L 18.921875 27.582031 Z M 20.699219 29.3125 "/>
<path style=" stroke:none;fill-rule:nonzero;fill:rgb(100%,100%,100%);fill-opacity:1;" d="M 29.945312 17.421875 C 31.886719 17.421875 33.136719 18.507812 33.25 20.261719 L 31.859375 20.261719 C 31.789062 19.25 31.070312 18.660156 29.933594 18.660156 C 28.652344 18.660156 27.824219 19.308594 27.824219 20.304688 C 27.824219 21.121094 28.289062 21.613281 29.246094 21.835938 L 30.917969 22.230469 C 32.574219 22.609375 33.417969 23.507812 33.417969 24.941406 C 33.417969 26.769531 31.996094 27.9375 29.832031 27.9375 C 27.765625 27.9375 26.390625 26.855469 26.304688 25.113281 L 27.710938 25.113281 C 27.738281 26.082031 28.554688 26.699219 29.832031 26.699219 C 31.183594 26.699219 32.042969 26.066406 32.042969 25.054688 C 32.042969 24.253906 31.605469 23.75 30.636719 23.523438 L 28.964844 23.144531 C 27.304688 22.765625 26.449219 21.808594 26.449219 20.347656 C 26.445312 18.605469 27.851562 17.421875 29.945312 17.421875 Z M 29.945312 17.421875 "/>
<path style=" stroke:none;fill-rule:nonzero;fill:rgb(100%,100%,100%);fill-opacity:1;" d="M 34.921875 27.753906 L 34.921875 17.421875 L 36.242188 17.421875 L 36.242188 21.949219 C 36.679688 21.203125 37.507812 20.699219 38.578125 20.699219 C 40.335938 20.699219 41.175781 21.808594 41.175781 23.566406 L 41.175781 27.769531 L 39.855469 27.769531 L 39.855469 23.859375 C 39.855469 22.46875 39.195312 21.90625 38.210938 21.90625 C 36.933594 21.90625 36.242188 22.835938 36.242188 24.015625 L 36.242188 27.753906 Z M 34.921875 27.753906 "/>
<path style=" stroke:none;fill-rule:nonzero;fill:rgb(100%,100%,100%);fill-opacity:1;" d="M 42.667969 25.855469 C 42.667969 24.59375 43.609375 23.804688 45.226562 23.679688 L 47.390625 23.511719 L 47.390625 23.316406 C 47.390625 22.164062 46.699219 21.753906 45.773438 21.753906 C 44.664062 21.753906 44.03125 22.246094 44.03125 23.074219 L 42.878906 23.074219 C 42.878906 21.640625 44.058594 20.699219 45.828125 20.699219 C 47.53125 20.699219 48.683594 21.601562 48.683594 23.457031 L 48.683594 27.769531 L 47.558594 27.769531 L 47.417969 26.660156 C 47.066406 27.445312 46.125 27.9375 45.011719 27.9375 C 43.539062 27.9375 42.667969 27.109375 42.667969 25.855469 Z M 47.402344 24.804688 L 47.402344 24.4375 L 45.648438 24.578125 C 44.480469 24.691406 44.003906 25.140625 44.003906 25.816406 C 44.003906 26.546875 44.535156 26.910156 45.394531 26.910156 C 46.644531 26.910156 47.402344 26.097656 47.402344 24.804688 Z M 47.402344 24.804688 "/>
<path style=" stroke:none;fill-rule:nonzero;fill:rgb(100%,100%,100%);fill-opacity:1;" d="M 54.445312 22.046875 L 53.855469 22.046875 C 52.605469 22.046875 51.832031 22.808594 51.832031 24.128906 L 51.832031 27.769531 L 50.511719 27.769531 L 50.511719 20.910156 L 51.746094 20.910156 L 51.832031 21.949219 C 52.109375 21.234375 52.800781 20.753906 53.742188 20.753906 C 53.976562 20.757812 54.214844 20.785156 54.445312 20.839844 Z M 54.445312 22.046875 "/>
<path style=" stroke:none;fill-rule:nonzero;fill:rgb(100%,100%,100%);fill-opacity:1;" d="M 54.980469 24.351562 C 54.980469 22.246094 56.203125 20.699219 58.242188 20.699219 C 59.296875 20.699219 60.179688 21.160156 60.644531 22.003906 L 60.644531 17.421875 L 61.953125 17.421875 L 61.953125 27.769531 L 60.769531 27.769531 L 60.660156 26.519531 C 60.207031 27.460938 59.28125 27.9375 58.183594 27.9375 C 56.1875 27.9375 54.980469 26.449219 54.980469 24.351562 Z M 60.628906 24.3125 C 60.628906 22.90625 59.800781 21.894531 58.453125 21.894531 C 57.101562 21.894531 56.316406 22.90625 56.316406 24.3125 C 56.316406 25.730469 57.101562 26.742188 58.453125 26.742188 C 59.800781 26.742188 60.628906 25.746094 60.628906 24.3125 Z M 60.628906 24.3125 "/>
<path style=" stroke:none;fill-rule:nonzero;fill:rgb(100%,100%,100%);fill-opacity:1;" d="M 63.414062 24.339844 C 63.414062 22.1875 64.777344 20.699219 66.773438 20.699219 C 68.726562 20.699219 70.003906 22.046875 70.003906 24.085938 L 70.003906 24.578125 L 64.691406 24.59375 C 64.789062 26.039062 65.550781 26.84375 66.859375 26.84375 C 67.886719 26.84375 68.558594 26.421875 68.785156 25.632812 L 70.019531 25.632812 C 69.683594 27.109375 68.53125 27.9375 66.832031 27.9375 C 64.804688 27.9375 63.414062 26.476562 63.414062 24.339844 Z M 64.71875 23.707031 L 68.683594 23.707031 C 68.683594 22.570312 67.9375 21.8125 66.773438 21.8125 C 65.621094 21.808594 64.890625 22.496094 64.71875 23.707031 Z M 64.71875 23.707031 "/>
<path style=" stroke:none;fill-rule:nonzero;fill:rgb(100%,100%,100%);fill-opacity:1;" d="M 70.398438 27.769531 L 72.800781 24.367188 L 70.414062 20.894531 L 71.945312 20.894531 L 73.6875 23.453125 L 75.390625 20.894531 L 76.890625 20.894531 L 74.503906 24.367188 L 76.851562 27.769531 L 75.316406 27.769531 L 73.601562 25.253906 L 71.917969 27.769531 Z M 70.398438 27.769531 "/>
</g>
</svg>
